<?xml version="1.0" encoding="utf-8"?><svg xmlns="http://www.w3.org/2000/svg" xmlns:xlink="http://www.w3.org/1999/xlink"><symbol viewBox="0 0 22 28" id="Bluetooth" xmlns="http://www.w3.org/2000/svg"><g clip-path="url(#ca)"><path d="M22.205 21.521 17.164 16l5.041-5.52a.86.86 0 0 0-.089-1.244l-6.129-5.04a.858.858 0 0 0-1.405.663v8.315L11.064 9.32a.86.86 0 0 0-1.269 1.16l4.787 5.242v.556l-4.787 5.243a.859.859 0 1 0 1.269 1.159l3.518-3.853v8.314a.86.86 0 0 0 1.405.664l6.13-5.04a.86.86 0 0 0 .088-1.244zM16.301 6.678l4.025 3.31-4.025 4.409V6.678zm0 18.644v-7.718l4.025 4.408-4.025 3.31z"/></g><defs><clipPath id="ca"><path transform="translate(4 4)" d="M0 0h24v24H0z"/></clipPath></defs></symbol><symbol viewBox="0 0 30 39" id="battery1" xmlns="http://www.w3.org/2000/svg"><g clip-path="url(#aa)"><path d="M27.031 4.73H13.969a2.618 2.618 0 0 0-2.615 2.616v29.462a2.618 2.618 0 0 0 2.615 2.615h13.062a2.618 2.618 0 0 0 2.615-2.615V7.346a2.618 2.618 0 0 0-2.615-2.615zm1.354 32.078c0 .746-.608 1.354-1.354 1.354H13.969a1.355 1.355 0 0 1-1.354-1.354V7.346c0-.746.608-1.354 1.354-1.354h13.062c.746 0 1.354.608 1.354 1.354v29.462z"/><path d="M23.97 1.577h-6.94a.63.63 0 0 0-.63.63v3.155c0 .348.283.63.63.63h6.94a.63.63 0 0 0 .63-.63V2.208a.63.63 0 0 0-.63-.631zm-.631 3.154h-5.677V2.838h5.677v1.893zM25.132 18.9a.63.63 0 0 0-.532-.292h-3.785V12.93a.63.63 0 0 0-1.202-.267l-4.415 9.461a.63.63 0 0 0 .571.898h3.785V28.7a.63.63 0 0 0 1.202.267l4.416-9.462a.631.631 0 0 0-.04-.605zm-5.578 2.862H16.76l2.794-5.988v5.988zm1.261 4.095v-5.988h2.794l-2.794 5.988z"/></g><defs><clipPath id="aa"><path transform="translate(1.577 1.577)" d="M0 0h37.846v37.846H0z"/></clipPath></defs></symbol><symbol viewBox="0 0 46 60" id="battery2" xmlns="http://www.w3.org/2000/svg"><path d="M42.536 4H36V0H24v4h-6.536A3.468 3.468 0 0 0 14 7.464v49.072A3.468 3.468 0 0 0 17.464 60h25.072A3.468 3.468 0 0 0 46 56.536V7.464A3.468 3.468 0 0 0 42.536 4zM16 19h28v12H16V19zm0 14h28v12H16V33zM26 2h8v2h-8V2zm-8.536 4h25.072C43.344 6 44 6.656 44 7.464V17H16V7.464C16 6.656 16.656 6 17.464 6zm25.072 52H17.464A1.465 1.465 0 0 1 16 56.536V47h28v9.536c0 .808-.656 1.464-1.464 1.464z"/></symbol><symbol viewBox="0 0 31 39" id="cableplug" xmlns="http://www.w3.org/2000/svg"><g clip-path="url(#da)"><path d="M30.592 9.777H28.7V3.469c0-1.072-.82-1.892-1.892-1.892-1.073 0-1.893.82-1.893 1.892v6.308h-8.83V3.469c0-1.072-.82-1.892-1.893-1.892-1.072 0-1.892.82-1.892 1.892v6.308h-1.892c-.379 0-.631.252-.631.63v4.794a12.58 12.58 0 0 0 3.343 8.516c1.892 2.145 2.965 4.92 2.965 7.758v1.64a3.123 3.123 0 0 0 3.154 3.154h.63v2.523c0 .379.253.631.631.631s.63-.252.63-.63v-2.524h.632a3.123 3.123 0 0 0 3.153-3.154v-1.577c0-2.901 1.01-5.613 2.965-7.758a12.737 12.737 0 0 0 3.343-8.578v-4.794c0-.379-.252-.631-.63-.631zm-4.415-6.308c0-.378.252-.63.63-.63.38 0 .631.252.631.63v6.308h-1.261V3.469zm-12.615 0c0-.315.252-.63.63-.63.379 0 .631.252.631.63v6.308h-1.262V3.469zm16.4 11.67c0 2.901-1.01 5.613-2.965 7.758a12.737 12.737 0 0 0-3.343 8.578v1.64c0 1.073-.82 1.893-1.892 1.893h-2.524a1.858 1.858 0 0 1-1.892-1.893v-1.577c0-3.153-1.198-6.244-3.343-8.578-1.892-2.145-2.964-4.92-2.964-7.758v-4.163h18.923v4.1z"/><path d="M23.023 17.977h-3.532l3.343-3.343a.61.61 0 0 0 0-.883.61.61 0 0 0-.883 0l-4.416 4.415c-.189.19-.252.442-.126.694.063.252.316.378.568.378h3.532l-3.343 3.344a.61.61 0 0 0 0 .883.573.573 0 0 0 .442.189.57.57 0 0 0 .441-.19l4.416-4.415c.189-.189.252-.441.126-.694-.063-.252-.316-.378-.568-.378z"/></g><defs><clipPath id="da"><path transform="translate(1.577 1.577)" d="M0 0h37.846v37.846H0z"/></clipPath></defs></symbol><symbol viewBox="0 0 27 28" id="charge" xmlns="http://www.w3.org/2000/svg"><g clip-path="url(#ea)"><path d="M26.08 11.227v-2.1a.706.706 0 0 0-.706-.707h-3.278a.706.706 0 0 0-.706.706v2.101a.706.706 0 0 0-.642.703v3.796a1.57 1.57 0 0 0 1.568 1.568h.713v7.52c0 .978-.796 1.774-1.774 1.774h-7.717a1.776 1.776 0 0 1-1.774-1.774v-1.52h1.501c.39 0 .706-.316.706-.706v-2.29h.75a2.12 2.12 0 0 0 2.118-2.118v-6.402c0-.952-.632-1.76-1.498-2.025v-2.42a.706.706 0 0 0-.706-.706h-.988V4.706a.706.706 0 1 0-1.412 0v1.92H9.881v-1.92a.706.706 0 0 0-1.411 0v1.92h-.988a.706.706 0 0 0-.706.707v2.42a2.121 2.121 0 0 0-1.498 2.025v6.402a2.12 2.12 0 0 0 2.118 2.118h.75v2.29c0 .39.315.706.705.706h1.501v1.52A3.19 3.19 0 0 0 13.538 28h7.717a3.19 3.19 0 0 0 3.186-3.186v-7.52h.713a1.57 1.57 0 0 0 1.568-1.568V11.93a.706.706 0 0 0-.642-.703zM13.929 8.04v1.62H8.188V8.039h5.74zm-7.24 10.14v-6.402c0-.389.317-.706.707-.706h7.325c.39 0 .706.317.706.706v6.402c0 .39-.317.706-.706.706H7.396a.707.707 0 0 1-.706-.706zm2.868 2.118h3.002v1.584H9.558v-1.584zM24.668 9.832v1.392h-1.866V9.832h1.866zm.642 5.894c0 .086-.07.156-.156.156h-2.838a.157.157 0 0 1-.156-.156v-3.09h3.15v3.09z"/><path d="M10.164 15.685h.716l-.312.724a.706.706 0 1 0 1.296.559l.737-1.71a.706.706 0 0 0-.648-.985h-.716l.312-.723a.706.706 0 0 0-1.296-.56l-.737 1.71a.706.706 0 0 0 .648.985z"/></g><defs><clipPath id="ea"><path transform="translate(4 4)" d="M0 0h24v24H0z"/></clipPath></defs></symbol><symbol viewBox="0 0 62 64" id="clock" xmlns="http://www.w3.org/2000/svg"><path d="M35.634 41.989a3.558 3.558 0 0 0 2.606-1.459l9.363-12.944a1 1 0 0 0-1.397-1.397L33.26 35.555a3.557 3.557 0 0 0-1.456 2.604 3.56 3.56 0 0 0 1.033 2.797 3.554 3.554 0 0 0 2.797 1.033zm-1.836-3.674a1.56 1.56 0 0 1 .637-1.142l7.897-5.713-5.711 7.895a1.565 1.565 0 0 1-2.371.187 1.564 1.564 0 0 1-.452-1.227z"/><path d="M58.034 23.564c-.01-.021-.01-.043-.021-.064-.012-.02-.031-.031-.044-.05a27.185 27.185 0 0 0-3.565-4.809l2.148-2.147 1.414 1.414 4.242-4.243-4.242-4.242-4.243 4.242 1.415 1.415-2.148 2.147a27.154 27.154 0 0 0-4.809-3.566c-.019-.013-.03-.032-.05-.044-.021-.012-.043-.011-.064-.022a26.81 26.81 0 0 0-10.273-3.404V9h1.5c1.379 0 2.5-1.121 2.5-2.5S40.672 4 39.293 4h-9a2.502 2.502 0 0 0-2.5 2.5c0 1.379 1.121 2.5 2.5 2.5h1.5v1.156c-1.08.115-2.158.291-3.224.535a1 1 0 1 0 .447 1.949 25.43 25.43 0 0 1 2.78-.477l1.073-.083c.328-.025.63-.043.924-.057V14a1 1 0 1 0 2 0v-1.97a24.805 24.805 0 0 1 10.456 2.845l-.986 1.707a1 1 0 0 0 1.732 1l.983-1.703a25.194 25.194 0 0 1 7.772 7.772l-1.703.983a1 1 0 0 0 1.002 1.732l1.707-.986a24.82 24.82 0 0 1 2.849 10.619H57.63a1 1 0 1 0 0 2h1.975a24.82 24.82 0 0 1-2.849 10.619l-1.707-.986a1 1 0 0 0-1 1.732l1.703.983a25.194 25.194 0 0 1-7.772 7.772l-.983-1.703a.998.998 0 0 0-1.366-.366.999.999 0 0 0-.366 1.366l.986 1.707a24.805 24.805 0 0 1-10.456 2.845V60a1 1 0 1 0-2 0v1.976a25.235 25.235 0 0 1-4.776-.617.996.996 0 0 0-1.198.751 1 1 0 0 0 .751 1.198c1.996.46 4.035.692 6.058.692.049 0 .096-.003.145-.004.007 0 .012.004.018.004.008 0 .015-.005.023-.005a26.825 26.825 0 0 0 13.219-3.573c.031-.014.064-.021.094-.039.02-.012.031-.031.05-.044a27.197 27.197 0 0 0 9.773-9.761c.019-.027.043-.048.06-.078.012-.021.011-.043.021-.064A26.808 26.808 0 0 0 61.63 37c0-4.89-1.313-9.476-3.596-13.436zm-.069-11.313 1.414 1.414-1.414 1.415-1.415-1.415 1.415-1.414zm-24.172-2.23V7h-3.5a.501.501 0 0 1-.5-.5c0-.275.225-.5.5-.5h9c.275 0 .5.225.5.5s-.225.5-.5.5h-3.5v3.021c-.348-.014-.68-.021-1-.021l-.088.002L34.63 10c-.164 0-.328.011-.492.014-.116.003-.225.002-.345.007zm-8 7.979h-5a1 1 0 1 0 0 2h5a1 1 0 1 0 0-2zm0 7h-10a1 1 0 1 0 0 2h10a1 1 0 1 0 0-2zm0 7h-15a1 1 0 1 0 0 2h15a1 1 0 1 0 0-2zm0 7h-19a1 1 0 1 0 0 2h19a1 1 0 1 0 0-2zm0 7h-13a1 1 0 1 0 0 2h13a1 1 0 1 0 0-2zm0 7h-7a1 1 0 1 0 0 2h7a1 1 0 1 0 0-2z"/></symbol><symbol viewBox="0 0 40 40" id="ear" xmlns="http://www.w3.org/2000/svg"><g clip-path="url(#ga)"><g clip-path="url(#gb)"><path d="M12.592.788C6.084.788.788 6.525.788 13.608a9.503 9.503 0 0 0 1.307 4.667c.393.67.73 1.372 1.006 2.098a1.32 1.32 0 0 1-.438 1.472 3.246 3.246 0 0 0-1.219 2.551 3.279 3.279 0 0 0 1.438 2.723c.325.22.522.584.53.976v5.482c0 3.616 2.647 6.558 5.901 6.558 3.255 0 5.902-2.942 5.902-6.558a9.222 9.222 0 0 1 3.214-7.03 16.61 16.61 0 0 0 5.967-12.971c0-7.05-5.295-12.788-11.804-12.788zm4.984 24.763a10.529 10.529 0 0 0-3.672 8.026c0 2.893-2.06 5.246-4.59 5.246-2.531 0-4.59-2.353-4.59-5.246v-5.482a2.54 2.54 0 0 0-1.073-2.04 1.975 1.975 0 0 1-.895-1.659 1.94 1.94 0 0 1 .747-1.545 2.623 2.623 0 0 0 .83-2.93 15.256 15.256 0 0 0-1.1-2.294A8.225 8.225 0 0 1 2.1 13.576C2.1 7.248 6.807 2.1 12.592 2.1c5.786 0 10.493 5.148 10.493 11.476a15.338 15.338 0 0 1-5.509 11.975z"/><path d="M12.592 4.067c-3.654 0-6.77 2.592-7.98 6.214a10.493 10.493 0 0 0-.546 3.325c0 .787 0 3.194 1.504 4.697a.656.656 0 0 0 .927-.927 4.012 4.012 0 0 1-.993-2.144c.106-.007.21-.015.32-.015 3.01-.002 5.457 2.753 5.457 6.136 0 .314-.015.61-.04.9-.326.35-.673.678-1.04.984a7.815 7.815 0 0 0-2.855 6.405.656.656 0 1 0 1.312 0 6.51 6.51 0 0 1 2.39-5.401 8.993 8.993 0 0 0 3.512-7.478c0-4.105-3.09-7.45-6.886-7.45a6.34 6.34 0 0 0-1.298.138 7.102 7.102 0 0 1 6.216-4.072c3.978 0 7.214 3.69 7.214 8.226a11.955 11.955 0 0 1-4.225 9.293c-.09.078-.19.162-.3.253-1.304 1.084-4.019 3.344-4.652 9.042a.656.656 0 0 0 .58.722.67.67 0 0 0 .072.006.656.656 0 0 0 .65-.583c.576-5.175 2.926-7.13 4.189-8.18.116-.096.223-.186.318-.268a13.235 13.235 0 0 0 4.68-10.285c0-5.26-3.825-9.538-8.526-9.538zm-4.918 6.558c3.074 0 5.574 2.754 5.574 6.138a8.377 8.377 0 0 1-.721 3.607c-.44-3.646-3.275-6.466-6.702-6.466-.152 0-.297.011-.444.021v-.32c0-.877.126-1.75.373-2.591a4.993 4.993 0 0 1 1.92-.389zm25.903 5.246a7.726 7.726 0 0 1 2.434-5.443.656.656 0 1 0-.933-.918 9.007 9.007 0 0 0-2.813 6.361 9.007 9.007 0 0 0 2.813 6.361.656.656 0 1 0 .932-.918 7.727 7.727 0 0 1-2.433-5.443z"/><path d="M37.948 12.102a.656.656 0 0 0-.926.054 5.41 5.41 0 0 0 0 7.43.656.656 0 0 0 .98-.872 4.1 4.1 0 0 1 0-5.686.656.656 0 0 0-.054-.926z"/><path d="M39.966 14.12a.656.656 0 0 0-.926-.048 2.29 2.29 0 0 0 0 3.598.656.656 0 1 0 .878-.975 1.17 1.17 0 0 1-.44-.824 1.17 1.17 0 0 1 .44-.824.656.656 0 0 0 .048-.926zm-9.668 1.751c0-2.885 1.293-5.674 3.738-8.055a.657.657 0 1 0-.918-.94c-2.702 2.634-4.131 5.744-4.131 8.995 0 3.25 1.43 6.361 4.13 8.995a.657.657 0 0 0 .919-.94c-2.445-2.381-3.738-5.17-3.738-8.055z"/><path d="M27.02 15.871c0-3.603 1.522-7.073 4.404-10.033a.657.657 0 0 0-.94-.918c-3.124 3.213-4.776 7-4.776 10.951 0 3.951 1.652 7.738 4.776 10.952a.657.657 0 0 0 .94-.919c-2.882-2.96-4.405-6.43-4.405-10.033z"/></g></g><defs><clipPath id="ga"><path d="M0 0h41v41H0z"/></clipPath><clipPath id="gb"><path transform="translate(.788 .788)" d="M0 0h39.423v39.346H0z"/></clipPath></defs></symbol><symbol viewBox="0 0 30 30" id="fb" xmlns="http://www.w3.org/2000/svg"><g clip-path="url(#ha)"><g clip-path="url(#hb)"><path d="M17.42 29.807c-.123.017-.252.04-.375.058.123-.023.246-.04.375-.058zm.299-.053zm-1.014.146zm.293-.035c-.07.012-.14.018-.21.024.064-.006.14-.012.21-.024zm1.131-.193-.158.035.158-.035zm1.014-.252-.13.035.13-.035zm-.311.082-.14.035a.55.55 0 0 0 .14-.035zm-.398.105-.147.036c.047-.018.1-.03.147-.036zm-2.174.34-.235.018.235-.018zM30 15c0-8.285-6.715-15-15-15S0 6.715 0 15s6.715 15 15 15c.088 0 .176 0 .264-.006V18.322H12.04v-3.756h3.223v-2.765c0-3.205 1.957-4.951 4.816-4.951 1.371 0 2.549.1 2.889.146v3.352H21c-1.553 0-1.857.738-1.857 1.822v2.39h3.72l-.486 3.756h-3.234V29.42C25.413 27.62 30 21.85 30 15zM15.99 29.965zm-.474.023c-.082 0-.164.006-.246.006.076 0 .158 0 .246-.006z"/></g></g><defs><clipPath id="ha"><path d="M0 0h30v30H0z"/></clipPath><clipPath id="hb"><path d="M0 0h30v30H0z"/></clipPath></defs></symbol><symbol viewBox="0 0 28 26" id="guarantee" xmlns="http://www.w3.org/2000/svg"><path d="M28 5.781H4v17.446h14.764v3.027l2.624-1.282 2.624 1.282v-3.027H28V5.78zm-6.612 14.632a2.393 2.393 0 0 1-2.39-2.39 2.393 2.393 0 0 1 2.39-2.391 2.393 2.393 0 0 1 2.391 2.39 2.393 2.393 0 0 1-2.39 2.391zm0 2.994-1.217.595v-2.384a3.776 3.776 0 0 0 2.435 0v2.384l-1.218-.595zm5.206-1.587h-2.582v-1.057a3.786 3.786 0 0 0 1.173-2.74 3.801 3.801 0 0 0-3.797-3.797 3.801 3.801 0 0 0-3.796 3.796c0 1.077.45 2.05 1.172 2.74v1.058H5.406V7.187h21.188V21.82z"/><path d="M6.814 11.41h18.372v1.407H6.814V11.41zm2.111-2.814h14.15v1.406H8.925V8.596zm-2.111 10.41h6.84v1.406h-6.84v-1.406zm0-2.816h6.84v1.407h-6.84v-1.406z"/></symbol><symbol viewBox="0 0 30 30" id="ig" xmlns="http://www.w3.org/2000/svg"><g clip-path="url(#ja)"><g clip-path="url(#jb)"><path d="M17.871 15A2.868 2.868 0 0 1 15 17.871 2.868 2.868 0 0 1 12.129 15 2.868 2.868 0 0 1 15 12.129 2.868 2.868 0 0 1 17.871 15z"/><path d="M21.715 9.92a2.66 2.66 0 0 0-.645-.99 2.66 2.66 0 0 0-.99-.645c-.305-.117-.762-.258-1.6-.299-.908-.04-1.183-.052-3.48-.052-2.303 0-2.572.005-3.48.052-.838.041-1.295.182-1.6.3a2.66 2.66 0 0 0-.99.644 2.66 2.66 0 0 0-.645.99c-.117.305-.258.762-.299 1.6-.04.908-.052 1.177-.052 3.48 0 2.297.011 2.572.052 3.48.041.838.176 1.295.3 1.6.14.375.357.715.644.99.275.287.615.504.99.645.305.117.762.258 1.6.299.908.04 1.177.052 3.48.052s2.572-.005 3.48-.052c.838-.041 1.295-.176 1.6-.3a2.844 2.844 0 0 0 1.635-1.634c.117-.305.258-.762.299-1.6.04-.908.052-1.183.052-3.48 0-2.303-.005-2.572-.052-3.48-.041-.838-.182-1.295-.3-1.6zM15 19.424a4.424 4.424 0 1 1 0-8.847 4.424 4.424 0 0 1 0 8.847zm4.6-7.986a1.033 1.033 0 0 1-1.032-1.032 1.033 1.033 0 0 1 2.063 0c0 .569-.463 1.031-1.031 1.031z"/><path d="M15 0C6.715 0 0 6.715 0 15s6.715 15 15 15 15-6.715 15-15S23.285 0 15 0zm8.56 18.55c-.04.915-.187 1.542-.398 2.093a4.392 4.392 0 0 1-2.52 2.52c-.544.21-1.171.357-2.091.398-.92.04-1.213.052-3.551.052s-2.63-.011-3.55-.052c-.915-.041-1.542-.188-2.093-.399a4.193 4.193 0 0 1-1.523-.996c-.44-.428-.78-.95-.996-1.523-.211-.545-.358-1.172-.399-2.092-.04-.92-.052-1.213-.052-3.551s.011-2.63.052-3.55c.041-.915.188-1.542.399-2.093a4.194 4.194 0 0 1 .996-1.523c.428-.44.95-.78 1.523-.996.551-.211 1.172-.358 2.092-.399.92-.04 1.213-.052 3.551-.052s2.63.011 3.55.052c.915.041 1.542.188 2.093.399a4.193 4.193 0 0 1 1.523.996c.44.428.78.95.996 1.523.211.551.358 1.172.399 2.092.04.92.052 1.213.052 3.551s-.011 2.63-.052 3.55z"/></g></g><defs><clipPath id="ja"><path d="M0 0h30v30H0z"/></clipPath><clipPath id="jb"><path d="M0 0h30v30H0z"/></clipPath></defs></symbol><symbol viewBox="0 0 14 15" id="phone" xmlns="http://www.w3.org/2000/svg"><g clip-path="url(#ka)"><path d="M13.745 13.092c-.254.502-.763.752-1.272 1.003-.637.376-1.146.5-1.782.5-.891 0-1.782-.375-2.546-.626-.636-.25-1.145-.5-1.781-.751-1.782-1.128-3.819-3.133-4.837-4.762a11.386 11.386 0 0 1-.89-1.754C.381 5.825 0 5.073 0 4.072c0-.627.127-1.254.51-1.88.254-.501.508-1.003 1.017-1.253.382 0 1.018-.126 1.4-.126h.255c.254.126.382.502.509.752.254.627.636 1.128.89 1.754.255.251.51.502.51.752 0 .627-1.782 1.504-1.782 2.005 0 .25.255.626.382.877 1.018 1.754 2.29 3.007 4.073 4.01.254.125.636.375.89.375.51 0 1.4-1.754 2.037-1.754.254 0 .509.25.763.501.51.376 1.146.627 1.655 1.003.255.125.636.25.764.5v.251c.127.251 0 .877-.127 1.253z"/></g><defs><clipPath id="ka"><path transform="translate(0 .813)" d="M0 0h14v13.782H0z"/></clipPath></defs></symbol><symbol viewBox="0 0 28 28" id="range" xmlns="http://www.w3.org/2000/svg"><g clip-path="url(#la)"><path d="M9.25 8.5A5.256 5.256 0 0 0 4 13.75c0 2.694 4.212 7.465 4.692 8.001A.754.754 0 0 0 9.25 22a.754.754 0 0 0 .558-.249c.48-.536 4.692-5.307 4.692-8.001A5.256 5.256 0 0 0 9.25 8.5zm0 11.605C7.612 18.163 5.5 15.181 5.5 13.75A3.755 3.755 0 0 1 9.25 10 3.755 3.755 0 0 1 13 13.75c0 1.43-2.112 4.413-3.75 6.355z"/><path d="M9.25 11.5C8.01 11.5 7 12.51 7 13.75S8.01 16 9.25 16s2.25-1.01 2.25-2.25-1.01-2.25-2.25-2.25zm0 3a.75.75 0 1 1 0-1.5.75.75 0 0 1 0 1.5zm18-10.5h-6a.75.75 0 0 0-.75.75v7.5a.75.75 0 0 0 1.5 0V10h5.25a.75.75 0 0 0 .75-.75v-4.5a.75.75 0 0 0-.75-.75zm-.75 4.5H22v-3h4.5v3zm-1.5 12h-7.5c-.826 0-1.5-.674-1.5-1.5s.674-1.5 1.5-1.5h1.638c.31.872 1.135 1.5 2.112 1.5 1.24 0 2.25-1.01 2.25-2.25s-1.01-2.25-2.25-2.25c-.977 0-1.802.629-2.112 1.5H17.5c-1.655 0-3 1.346-3 3s1.345 3 3 3H25c.826 0 1.5.674 1.5 1.5S25.826 25 25 25H11.362a2.246 2.246 0 0 0-2.112-1.5C8.01 23.5 7 24.51 7 25.75S8.01 28 9.25 28c.976 0 1.802-.628 2.112-1.5H25c1.654 0 3-1.346 3-3s-1.346-3-3-3zM21.25 16a.75.75 0 1 1 0 1.5.75.75 0 0 1 0-1.5zm-12 10.5a.75.75 0 1 1 0-1.5.75.75 0 0 1 0 1.5z"/></g><defs><clipPath id="la"><path transform="translate(4 4)" d="M0 0h24v24H0z"/></clipPath></defs></symbol><symbol viewBox="0 0 52 49" id="sound" xmlns="http://www.w3.org/2000/svg"><g clip-path="url(#ma)"><path d="M28.404 3.413a3.029 3.029 0 0 0-3.09.044.929.929 0 0 0-.13.093l-13.55 11.463H1a1 1 0 0 0-1 1v19a1.002 1.002 0 0 0 1 1l10.61-.005 13.543 12.44c.05.046.104.086.161.12a3.055 3.055 0 0 0 1.582.446 3.07 3.07 0 0 0 1.508-.402A3.122 3.122 0 0 0 30 45.857V6.169a3.125 3.125 0 0 0-1.596-2.756zM28 45.857c0 .431-.217.81-.579 1.015a1.049 1.049 0 0 1-1 .026L13 34.569v-4.556a1 1 0 1 0-2 0v3.996l-9 .004v-17h9v4a1 1 0 1 0 2 0v-4.536l13.405-11.34c.461-.242.86-.07 1.016.018.362.205.579.584.579 1.014v39.688zM38.797 7.066a1.002 1.002 0 0 0-.643 1.895 17.48 17.48 0 0 1 11.872 16.553 17.492 17.492 0 0 1-11.849 16.554 1 1 0 0 0 .646 1.893 19.489 19.489 0 0 0 13.202-18.446A19.478 19.478 0 0 0 38.797 7.066z"/><path d="M43.026 25.513c0-5.972-4.009-11.302-9.749-12.962a1 1 0 0 0-.554 1.922c4.889 1.413 8.304 5.953 8.304 11.04 0 5.087-3.415 9.627-8.304 11.04a1 1 0 0 0 .554 1.922c5.741-1.66 9.749-6.99 9.749-12.962z"/></g><defs><clipPath id="ma"><path d="M0 0h52.026v52.026H0z"/></clipPath></defs></symbol><symbol viewBox="0 0 13 17" id="soundWhite" xmlns="http://www.w3.org/2000/svg"><path d="M11.188 1.174 5.016 6.082a3.132 3.132 0 0 0-1.497-.372A3.158 3.158 0 0 0 .36 8.87a3.158 3.158 0 0 0 3.16 3.161c.54 0 1.05-.139 1.497-.371l6.172 4.917c.809.642 1.999.065 1.999-.967V2.131c0-1.032-1.19-1.608-1.999-.957z"/></symbol><symbol viewBox="0 0 30 30" id="tg" xmlns="http://www.w3.org/2000/svg"><g clip-path="url(#oa)"><g clip-path="url(#ob)"><path d="M15 30c8.285 0 15-6.715 15-15S23.285 0 15 0 0 6.715 0 15s6.715 15 15 15zM6.861 14.678 21.328 9.1c.674-.24 1.26.164 1.037 1.177l-2.46 11.602c-.182.82-.675 1.025-1.354.633l-3.75-2.766-1.81 1.74c-.2.2-.37.37-.757.37l.264-3.815 6.955-6.275c.305-.264-.07-.416-.469-.153l-8.59 5.409-3.703-1.155c-.802-.258-.82-.803.17-1.19z"/></g></g><defs><clipPath id="oa"><path d="M0 0h30v30H0z"/></clipPath><clipPath id="ob"><path d="M0 0h30v30H0z"/></clipPath></defs></symbol><symbol viewBox="0 0 8 7" id="triangleRed" xmlns="http://www.w3.org/2000/svg"><path d="M4 7 .103.25h7.794L4 7z"/></symbol><symbol viewBox="0 0 12 17" id="triangleWhite" xmlns="http://www.w3.org/2000/svg"><path d="m11.407 9.837-8.46 6.74c-.808.641-1.998.065-1.998-.967V2.13c0-1.031 1.19-1.608 1.998-.966l8.46 6.74c.614.492.614 1.44 0 1.933z"/></symbol><symbol viewBox="0 0 30 30" id="vk" xmlns="http://www.w3.org/2000/svg"><g clip-path="url(#ra)"><g clip-path="url(#rb)"><path d="M15 0C6.718 0 0 6.718 0 15s6.718 15 15 15 15-6.718 15-15S23.282 0 15 0zm7.607 16.626c.706.675 1.442 1.319 2.056 2.086.276.337.552.675.736 1.073.276.552.03 1.166-.46 1.197H21.87c-.797.06-1.41-.246-1.963-.798-.43-.43-.828-.89-1.227-1.35a2.115 2.115 0 0 0-.552-.49c-.43-.277-.798-.184-1.012.245-.246.46-.307.95-.338 1.442-.03.736-.245.92-.982.95-1.564.062-3.036-.153-4.386-.95-1.196-.706-2.147-1.657-2.945-2.761-1.595-2.147-2.791-4.51-3.895-6.933-.246-.552-.062-.828.552-.858a48.592 48.592 0 0 1 3.006 0c.399 0 .675.245.828.613.552 1.319 1.196 2.607 2.025 3.773.214.307.46.614.767.859.368.245.613.153.797-.245a3.39 3.39 0 0 0 .184-.798c.092-.92.092-1.84-.061-2.76-.092-.614-.4-.982-.982-1.105-.307-.061-.245-.153-.123-.337.246-.277.491-.46.951-.46h3.467c.552.122.674.337.736.889v3.865c0 .215.092.859.49.982.307.092.522-.154.706-.338.828-.89 1.411-1.932 1.963-3.006.246-.49.43-.982.645-1.472.153-.368.368-.553.797-.553h3.344c.092 0 .184 0 .306.031.552.092.706.338.552.89-.276.859-.797 1.595-1.319 2.3-.552.767-1.165 1.503-1.717 2.301-.552.736-.522 1.104.122 1.718z"/></g></g><defs><clipPath id="ra"><path d="M0 0h30v30H0z"/></clipPath><clipPath id="rb"><path d="M0 0h30v30H0z"/></clipPath></defs></symbol><symbol viewBox="0 0 28 28" id="weight" xmlns="http://www.w3.org/2000/svg"><g clip-path="url(#sa)"><path d="M24.337 10.4h-5.363a3.885 3.885 0 0 0 .906-2.497A3.907 3.907 0 0 0 15.977 4a3.907 3.907 0 0 0-3.903 3.903c0 .949.34 1.82.906 2.497H7.617L4.28 28h23.392l-3.336-17.6zm-8.36-4.994a2.5 2.5 0 0 1 2.497 2.497 2.5 2.5 0 0 1-2.497 2.497 2.5 2.5 0 0 1-2.497-2.497 2.5 2.5 0 0 1 2.497-2.497zm-7.196 6.4h14.392l2.802 14.788H5.979l2.802-14.788z"/><path d="M16.006 16.403h-1.597l-2.231 2.228v-2.228H11.03v5.62h1.147v-1.921l.578-.564 1.748 2.485h1.481l-2.41-3.273 2.43-2.347z"/><path d="M18.275 20h1.515v.617a2.339 2.339 0 0 1-.494.26 2.065 2.065 0 0 1-.778.153c-.303 0-.592-.067-.86-.2a1.28 1.28 0 0 1-.588-.587c-.14-.275-.212-.628-.212-1.048 0-.34.06-.66.18-.948.066-.16.162-.309.283-.444.115-.128.273-.234.467-.315.198-.083.44-.125.72-.125.227 0 .435.04.619.117a.96.96 0 0 1 .398.288c.097.127.181.31.25.543l.065.22 1.055-.29-.056-.222c-.097-.377-.243-.69-.434-.93a1.913 1.913 0 0 0-.804-.576 2.937 2.937 0 0 0-1.097-.198c-.55 0-1.045.116-1.47.344a2.33 2.33 0 0 0-1.006 1.072 3.434 3.434 0 0 0-.338 1.506c0 .542.115 1.04.342 1.481.233.452.581.802 1.036 1.04.446.234.947.353 1.488.353.402 0 .799-.073 1.18-.218a4.099 4.099 0 0 0 1.1-.638l.087-.07v-2.258l-2.648.004v1.07z"/></g><defs><clipPath id="sa"><path transform="translate(4 4)" d="M0 0h24v24H0z"/></clipPath></defs></symbol><symbol viewBox="0 0 42 42" id="wheel" xmlns="http://www.w3.org/2000/svg"><g clip-path="url(#ta)"><path d="M21 10.111c-6.004 0-10.889 4.884-10.889 10.889 0 6.004 4.885 10.889 10.889 10.889S31.889 27.004 31.889 21c0-6.005-4.885-10.889-10.889-10.889zm0 20.222c-5.147 0-9.333-4.186-9.333-9.333s4.186-9.333 9.333-9.333 9.333 4.186 9.333 9.333c0 5.146-4.186 9.333-9.333 9.333z"/><path d="M39.838 16.333h-1.57c-.4-1.487-.99-2.91-1.758-4.244l1.11-1.11a2.15 2.15 0 0 0 .633-1.528c0-.578-.225-1.121-.633-1.53L34.078 4.38c-.816-.816-2.24-.818-3.059 0L29.91 5.489a17.776 17.776 0 0 0-4.243-1.757v-1.57C25.667.97 24.697 0 23.504 0h-5.008c-1.193 0-2.163.97-2.163 2.162v1.57c-1.486.4-2.909.99-4.244 1.758l-1.11-1.11c-.817-.818-2.241-.816-3.058 0L4.38 7.922a2.15 2.15 0 0 0-.633 1.53c0 .577.224 1.12.633 1.529l1.109 1.109a17.705 17.705 0 0 0-1.757 4.243h-1.57C.97 16.333 0 17.303 0 18.496v5.008c0 1.193.97 2.163 2.162 2.163h1.57c.4 1.486.99 2.909 1.758 4.244l-1.11 1.11a2.15 2.15 0 0 0-.633 1.528c0 .578.225 1.121.633 1.53l3.542 3.541c.816.818 2.241.819 3.059 0l1.109-1.109a17.798 17.798 0 0 0 4.244 1.758v1.57c0 1.192.97 2.162 2.162 2.162h5.008c1.193 0 2.163-.97 2.163-2.162v-1.57c1.486-.4 2.909-.99 4.244-1.758l1.11 1.11c.817.818 2.24.816 3.058 0l3.541-3.542a2.15 2.15 0 0 0 .633-1.53 2.15 2.15 0 0 0-.633-1.529l-1.109-1.109a17.798 17.798 0 0 0 1.758-4.244h1.57c1.192 0 2.162-.97 2.162-2.163v-5.008a2.166 2.166 0 0 0-2.163-2.163zm.606 7.171a.607.607 0 0 1-.606.607h-2.794l-.14.601a16.245 16.245 0 0 1-2.032 4.909l-.327.524 1.975 1.975a.607.607 0 0 1 0 .859l-3.541 3.54a.607.607 0 0 1-.86 0l-1.974-1.974-.524.327a16.208 16.208 0 0 1-4.909 2.032l-.6.14v2.794a.607.607 0 0 1-.608.606h-5.008a.607.607 0 0 1-.607-.606v-2.794l-.601-.14a16.245 16.245 0 0 1-4.909-2.032l-.524-.327L9.88 36.52a.607.607 0 0 1-.859 0l-3.54-3.541a.607.607 0 0 1 0-.86l1.974-1.974-.327-.524a16.208 16.208 0 0 1-2.032-4.909l-.14-.6H2.162a.607.607 0 0 1-.606-.608v-5.008c0-.335.272-.607.606-.607h2.794l.14-.601a16.228 16.228 0 0 1 2.032-4.909l.327-.524L5.48 9.88a.607.607 0 0 1 0-.859l3.541-3.54a.607.607 0 0 1 .86 0l1.974 1.974.524-.327a16.208 16.208 0 0 1 4.909-2.032l.6-.14V2.162c0-.334.273-.606.608-.606h5.008c.335 0 .607.272.607.606v2.794l.601.14a16.245 16.245 0 0 1 4.909 2.032l.524.327L32.12 5.48a.607.607 0 0 1 .859 0l3.54 3.541a.607.607 0 0 1 0 .86l-1.974 1.974.327.524a16.19 16.19 0 0 1 2.032 4.909l.14.6h2.794c.334 0 .606.273.606.608v5.008z"/><path d="M21 13.222c-4.289 0-7.778 3.49-7.778 7.778 0 4.289 3.49 7.778 7.778 7.778 4.289 0 7.778-3.49 7.778-7.778 0-4.289-3.49-7.778-7.778-7.778zm0 14A6.23 6.23 0 0 1 14.778 21 6.23 6.23 0 0 1 21 14.778 6.23 6.23 0 0 1 27.222 21 6.23 6.23 0 0 1 21 27.222z"/></g><defs><clipPath id="ta"><path d="M0 0h42v42H0z"/></clipPath></defs></symbol></svg>